<svg width="512" height="512" viewBox="0 0 512 512" fill="none" xmlns="http://www.w3.org/2000/svg">
<g clip-path="url(#clip0_28_22)">
<g filter="url(#filter0_f_28_22)">
<ellipse cx="30.5984" cy="69" rx="131.598" ry="128" fill="#9D411A"/>
</g>
<g filter="url(#filter1_f_28_22)">
<circle cx="477.5" cy="220.5" r="101.5" fill="url(#paint0_linear_28_22)"/>
</g>
<g filter="url(#filter2_f_28_22)">
<circle cx="109.5" cy="443.5" r="101.5" fill="url(#paint1_linear_28_22)"/>
</g>
</g>
<g filter="url(#filter3_b_28_22)">
<rect width="512" height="512" rx="100" fill="url(#paint2_linear_28_22)"/>
</g>
<path d="M227.875 124.75C212.345 124.75 199.75 137.334 199.75 152.87V162.25H134.125C118.592 162.25 106 174.842 106 190.375V216.328L248.753 254.395C253.501 255.661 258.499 255.661 263.247 254.395L406 216.328V190.375C406 174.842 393.408 162.25 377.875 162.25H312.25V152.87C312.25 137.334 299.655 124.75 284.125 124.75H227.875ZM227.875 143.5H284.125C289.306 143.5 293.5 147.712 293.5 152.887V162.25H218.5V152.87C218.5 147.696 222.694 143.5 227.875 143.5Z" fill="url(#paint3_linear_28_22)"/>
<path d="M106 340.375C106 355.908 118.592 368.5 134.125 368.5H377.875C393.408 368.5 406 355.908 406 340.375V234.422L258.416 273.778C256.833 274.2 255.167 274.2 253.584 273.778L106 234.422V340.375Z" fill="url(#paint4_linear_28_22)"/>
<defs>
<filter id="filter0_f_28_22" x="-301" y="-259" width="663.197" height="656" filterUnits="userSpaceOnUse" color-interpolation-filters="sRGB">
<feFlood flood-opacity="0" result="BackgroundImageFix"/>
<feBlend mode="normal" in="SourceGraphic" in2="BackgroundImageFix" result="shape"/>
<feGaussianBlur stdDeviation="100" result="effect1_foregroundBlur_28_22"/>
</filter>
<filter id="filter1_f_28_22" x="176" y="-81" width="603" height="603" filterUnits="userSpaceOnUse" color-interpolation-filters="sRGB">
<feFlood flood-opacity="0" result="BackgroundImageFix"/>
<feBlend mode="normal" in="SourceGraphic" in2="BackgroundImageFix" result="shape"/>
<feGaussianBlur stdDeviation="100" result="effect1_foregroundBlur_28_22"/>
</filter>
<filter id="filter2_f_28_22" x="-162" y="172" width="543" height="543" filterUnits="userSpaceOnUse" color-interpolation-filters="sRGB">
<feFlood flood-opacity="0" result="BackgroundImageFix"/>
<feBlend mode="normal" in="SourceGraphic" in2="BackgroundImageFix" result="shape"/>
<feGaussianBlur stdDeviation="85" result="effect1_foregroundBlur_28_22"/>
</filter>
<filter id="filter3_b_28_22" x="-92" y="-92" width="696" height="696" filterUnits="userSpaceOnUse" color-interpolation-filters="sRGB">
<feFlood flood-opacity="0" result="BackgroundImageFix"/>
<feGaussianBlur in="BackgroundImage" stdDeviation="46"/>
<feComposite in2="SourceAlpha" operator="in" result="effect1_backgroundBlur_28_22"/>
<feBlend mode="normal" in="SourceGraphic" in2="effect1_backgroundBlur_28_22" result="shape"/>
</filter>
<linearGradient id="paint0_linear_28_22" x1="509.98" y1="166.367" x2="361.113" y2="322" gradientUnits="userSpaceOnUse">
<stop stop-color="#CB490F"/>
<stop offset="1" stop-color="#AEEF25"/>
</linearGradient>
<linearGradient id="paint1_linear_28_22" x1="141.98" y1="389.367" x2="-6.88667" y2="545" gradientUnits="userSpaceOnUse">
<stop stop-color="#E87D41"/>
<stop offset="1" stop-color="#865221"/>
</linearGradient>
<linearGradient id="paint2_linear_28_22" x1="16.1758" y1="28.16" x2="603.56" y2="201.203" gradientUnits="userSpaceOnUse">
<stop offset="0.0374553" stop-color="white" stop-opacity="0.4"/>
<stop offset="1" stop-color="white" stop-opacity="0.1"/>
</linearGradient>
<linearGradient id="paint3_linear_28_22" x1="256" y1="124.75" x2="256" y2="368.5" gradientUnits="userSpaceOnUse">
<stop stop-color="#BB6C3F" stop-opacity="0.37"/>
<stop offset="1" stop-color="#996F3D"/>
</linearGradient>
<linearGradient id="paint4_linear_28_22" x1="256" y1="124.75" x2="256" y2="368.5" gradientUnits="userSpaceOnUse">
<stop stop-color="#BB6C3F" stop-opacity="0.37"/>
<stop offset="1" stop-color="#996F3D"/>
</linearGradient>
<clipPath id="clip0_28_22">
<rect width="512" height="512" rx="100" fill="white"/>
</clipPath>
</defs>
</svg>
