<svg width="512" height="512" viewBox="0 0 512 512" fill="none" xmlns="http://www.w3.org/2000/svg">
<g clip-path="url(#clip0_28_87)">
<g filter="url(#filter0_f_28_87)">
<ellipse cx="30.5984" cy="69" rx="131.598" ry="128" fill="#0085FF"/>
</g>
<g filter="url(#filter1_f_28_87)">
<circle cx="477.5" cy="220.5" r="101.5" fill="url(#paint0_linear_28_87)"/>
</g>
<g filter="url(#filter2_f_28_87)">
<circle cx="109.5" cy="443.5" r="101.5" fill="url(#paint1_linear_28_87)"/>
</g>
</g>
<g filter="url(#filter3_b_28_87)">
<rect width="512" height="512" rx="100" fill="url(#paint2_linear_28_87)"/>
</g>
<path d="M256 397.308C333.665 397.308 396.625 334.348 396.625 256.683C396.625 191.743 352.606 137.084 292.779 120.916C293.248 119.275 293.5 117.542 293.5 115.75C293.5 105.395 285.105 97 274.75 97H237.25C226.894 97 218.5 105.395 218.5 115.75C218.5 117.542 218.751 119.275 219.221 120.916C159.393 137.084 115.375 191.743 115.375 256.683C115.375 334.348 178.335 397.308 256 397.308ZM377.875 256.683C377.875 323.993 323.31 378.558 256 378.558C188.69 378.558 134.125 323.993 134.125 256.683C134.125 189.373 188.69 134.808 256 134.808C323.31 134.808 377.875 189.373 377.875 256.683Z" fill="url(#paint3_linear_28_87)"/>
<path d="M236.114 236.487L328.921 183.454L275.888 276.262L183.081 329.295L236.114 236.487Z" fill="url(#paint4_linear_28_87)"/>
<defs>
<filter id="filter0_f_28_87" x="-301" y="-259" width="663.197" height="656" filterUnits="userSpaceOnUse" color-interpolation-filters="sRGB">
<feFlood flood-opacity="0" result="BackgroundImageFix"/>
<feBlend mode="normal" in="SourceGraphic" in2="BackgroundImageFix" result="shape"/>
<feGaussianBlur stdDeviation="100" result="effect1_foregroundBlur_28_87"/>
</filter>
<filter id="filter1_f_28_87" x="176" y="-81" width="603" height="603" filterUnits="userSpaceOnUse" color-interpolation-filters="sRGB">
<feFlood flood-opacity="0" result="BackgroundImageFix"/>
<feBlend mode="normal" in="SourceGraphic" in2="BackgroundImageFix" result="shape"/>
<feGaussianBlur stdDeviation="100" result="effect1_foregroundBlur_28_87"/>
</filter>
<filter id="filter2_f_28_87" x="-192" y="142" width="603" height="603" filterUnits="userSpaceOnUse" color-interpolation-filters="sRGB">
<feFlood flood-opacity="0" result="BackgroundImageFix"/>
<feBlend mode="normal" in="SourceGraphic" in2="BackgroundImageFix" result="shape"/>
<feGaussianBlur stdDeviation="100" result="effect1_foregroundBlur_28_87"/>
</filter>
<filter id="filter3_b_28_87" x="-92" y="-92" width="696" height="696" filterUnits="userSpaceOnUse" color-interpolation-filters="sRGB">
<feFlood flood-opacity="0" result="BackgroundImageFix"/>
<feGaussianBlur in="BackgroundImage" stdDeviation="46"/>
<feComposite in2="SourceAlpha" operator="in" result="effect1_backgroundBlur_28_87"/>
<feBlend mode="normal" in="SourceGraphic" in2="effect1_backgroundBlur_28_87" result="shape"/>
</filter>
<linearGradient id="paint0_linear_28_87" x1="509.98" y1="166.367" x2="361.113" y2="322" gradientUnits="userSpaceOnUse">
<stop stop-color="#003BD4"/>
<stop offset="1" stop-color="#25BFEF"/>
</linearGradient>
<linearGradient id="paint1_linear_28_87" x1="141.98" y1="389.367" x2="-6.88667" y2="545" gradientUnits="userSpaceOnUse">
<stop stop-color="#0088D4"/>
<stop offset="0.9999" stop-color="#2682EE"/>
<stop offset="1" stop-color="#8AEF25"/>
</linearGradient>
<linearGradient id="paint2_linear_28_87" x1="16.1758" y1="28.16" x2="603.56" y2="201.203" gradientUnits="userSpaceOnUse">
<stop offset="0.0374553" stop-color="white" stop-opacity="0.4"/>
<stop offset="1" stop-color="white" stop-opacity="0.1"/>
</linearGradient>
<linearGradient id="paint3_linear_28_87" x1="256" y1="97" x2="256" y2="397.308" gradientUnits="userSpaceOnUse">
<stop stop-color="#296A99" stop-opacity="0.37"/>
<stop offset="1" stop-color="#3D6799"/>
</linearGradient>
<linearGradient id="paint4_linear_28_87" x1="256" y1="97" x2="256" y2="397.308" gradientUnits="userSpaceOnUse">
<stop stop-color="#296A99" stop-opacity="0.37"/>
<stop offset="1" stop-color="#3D6799"/>
</linearGradient>
<clipPath id="clip0_28_87">
<rect width="512" height="512" rx="100" fill="white"/>
</clipPath>
</defs>
</svg>
