<svg width="512" height="512" viewBox="0 0 512 512" fill="none" xmlns="http://www.w3.org/2000/svg">
<g clip-path="url(#clip0_28_23)">
<g filter="url(#filter0_f_28_23)">
<ellipse cx="30.5984" cy="69" rx="131.598" ry="128" fill="#FF7A00"/>
</g>
<g filter="url(#filter1_f_28_23)">
<circle cx="477.5" cy="220.5" r="101.5" fill="url(#paint0_linear_28_23)"/>
</g>
<g filter="url(#filter2_f_28_23)">
<circle cx="109.5" cy="443.5" r="101.5" fill="url(#paint1_linear_28_23)"/>
</g>
</g>
<g filter="url(#filter3_b_28_23)">
<rect width="512" height="512" rx="100" fill="url(#paint2_linear_28_23)"/>
</g>
<path d="M292.932 197.483L310.801 268.957C296.471 272.469 277.39 274.749 255.999 274.749C234.608 274.749 215.527 272.469 201.197 268.957L219.066 197.483C230.399 198.942 242.885 199.749 255.999 199.749C269.113 199.749 281.599 198.942 292.932 197.483Z" fill="url(#paint3_linear_28_23)"/>
<path d="M288.351 179.157L274.189 122.51C269.455 103.574 242.543 103.574 237.809 122.51L223.647 179.157C233.494 180.33 244.407 180.999 255.999 180.999C267.591 180.999 278.504 180.33 288.351 179.157Z" fill="url(#paint4_linear_28_23)"/>
<path d="M370.772 340.655C374.816 341.665 377.706 345.225 377.866 349.39C378.026 353.555 375.417 357.325 371.463 358.644L258.963 396.144C257.039 396.785 254.958 396.785 253.034 396.144L140.534 358.644C136.579 357.325 133.97 353.555 134.13 349.39C134.29 345.225 137.181 341.665 141.225 340.655L186.07 329.443L196.649 287.124C212.813 291.094 233.479 293.476 255.999 293.476C278.519 293.476 299.184 291.094 315.348 287.124L325.928 329.443L370.772 340.655Z" fill="url(#paint5_linear_28_23)"/>
<defs>
<filter id="filter0_f_28_23" x="-301" y="-259" width="663.197" height="656" filterUnits="userSpaceOnUse" color-interpolation-filters="sRGB">
<feFlood flood-opacity="0" result="BackgroundImageFix"/>
<feBlend mode="normal" in="SourceGraphic" in2="BackgroundImageFix" result="shape"/>
<feGaussianBlur stdDeviation="100" result="effect1_foregroundBlur_28_23"/>
</filter>
<filter id="filter1_f_28_23" x="176" y="-81" width="603" height="603" filterUnits="userSpaceOnUse" color-interpolation-filters="sRGB">
<feFlood flood-opacity="0" result="BackgroundImageFix"/>
<feBlend mode="normal" in="SourceGraphic" in2="BackgroundImageFix" result="shape"/>
<feGaussianBlur stdDeviation="100" result="effect1_foregroundBlur_28_23"/>
</filter>
<filter id="filter2_f_28_23" x="-192" y="142" width="603" height="603" filterUnits="userSpaceOnUse" color-interpolation-filters="sRGB">
<feFlood flood-opacity="0" result="BackgroundImageFix"/>
<feBlend mode="normal" in="SourceGraphic" in2="BackgroundImageFix" result="shape"/>
<feGaussianBlur stdDeviation="100" result="effect1_foregroundBlur_28_23"/>
</filter>
<filter id="filter3_b_28_23" x="-92" y="-92" width="696" height="696" filterUnits="userSpaceOnUse" color-interpolation-filters="sRGB">
<feFlood flood-opacity="0" result="BackgroundImageFix"/>
<feGaussianBlur in="BackgroundImage" stdDeviation="46"/>
<feComposite in2="SourceAlpha" operator="in" result="effect1_backgroundBlur_28_23"/>
<feBlend mode="normal" in="SourceGraphic" in2="effect1_backgroundBlur_28_23" result="shape"/>
</filter>
<linearGradient id="paint0_linear_28_23" x1="509.98" y1="166.367" x2="361.113" y2="322" gradientUnits="userSpaceOnUse">
<stop stop-color="#D46600"/>
<stop offset="1" stop-color="#EF8625"/>
</linearGradient>
<linearGradient id="paint1_linear_28_23" x1="141.98" y1="389.367" x2="-6.88667" y2="545" gradientUnits="userSpaceOnUse">
<stop stop-color="#D46600"/>
<stop offset="1" stop-color="#EF8625"/>
</linearGradient>
<linearGradient id="paint2_linear_28_23" x1="16.1758" y1="28.16" x2="603.56" y2="201.203" gradientUnits="userSpaceOnUse">
<stop offset="0.0374553" stop-color="white" stop-opacity="0.4"/>
<stop offset="1" stop-color="white" stop-opacity="0.1"/>
</linearGradient>
<linearGradient id="paint3_linear_28_23" x1="255.998" y1="108.308" x2="255.998" y2="396.625" gradientUnits="userSpaceOnUse">
<stop stop-color="#FF5C00" stop-opacity="0.37"/>
<stop offset="1" stop-color="#E07900"/>
</linearGradient>
<linearGradient id="paint4_linear_28_23" x1="255.998" y1="108.308" x2="255.998" y2="396.625" gradientUnits="userSpaceOnUse">
<stop stop-color="#FF5C00" stop-opacity="0.37"/>
<stop offset="1" stop-color="#E07900"/>
</linearGradient>
<linearGradient id="paint5_linear_28_23" x1="255.998" y1="108.308" x2="255.998" y2="396.625" gradientUnits="userSpaceOnUse">
<stop stop-color="#FF5C00" stop-opacity="0.37"/>
<stop offset="1" stop-color="#E07900"/>
</linearGradient>
<clipPath id="clip0_28_23">
<rect width="512" height="512" rx="100" fill="white"/>
</clipPath>
</defs>
</svg>
